<svg width="41" height="55" viewBox="0 0 41 55" fill="none" xmlns="http://www.w3.org/2000/svg">
<path d="M23.232 9.18602H15.594V24.452C14.711 24.747 13.539 25.334 12.659 25.627C12.069 25.92 11.482 25.92 10.896 25.92V9.77301C10.896 9.77301 10.896 7.42301 9.71901 6.54301L21.759 6.25001C22.346 7.13001 22.639 8.01102 23.232 9.18602ZM25.282 30.032C30.862 27.389 33.507 22.69 33.507 17.406C33.507 13.882 32.33 11.534 30.86 10.361C30.568 9.77101 30.274 9.18702 30.274 8.89302C29.981 8.01302 29.688 7.13001 29.394 6.54301H29.981C34.095 7.42301 37.323 9.77301 38.794 14.179C39.967 17.993 39.38 22.399 36.736 26.219C36.146 27.099 34.386 28.859 32.624 30.327C32.331 30.619 32.039 30.619 31.744 30.914C34.094 34.728 35.266 37.08 36.736 41.189C38.203 45.005 39.086 49.703 39.086 50.879C39.38 53.522 40.26 53.817 40.553 53.817L30.863 54.11C31.16 53.522 33.803 52.644 33.803 48.53C33.803 45.593 33.213 42.366 31.746 38.546C31.159 36.789 29.982 34.14 28.81 32.088C28.223 32.383 27.632 32.383 26.75 32.676C26.165 32.383 25.874 31.209 25.283 30.033L25.282 30.032ZM15.594 29.736V32.09C16.18 32.09 18.532 31.8 20.582 31.505C21.172 32.68 21.467 33.56 21.76 34.438C20.883 34.731 19.996 34.731 19.12 35.024C17.648 35.322 16.475 35.322 15.595 35.322V51.472C15.595 51.762 15.595 53.822 16.768 54.408L9.42801 54.701C10.604 53.823 10.604 51.764 10.604 51.473V30.913C12.364 30.62 14.127 30.326 15.594 29.738V29.736ZM16.476 3.89901H5.61301V27.389C6.49301 27.389 10.013 27.097 12.363 26.219C19.999 23.866 23.819 18.579 23.819 12.121C23.819 8.30401 22.642 6.24701 21.174 5.07301C20.291 4.19301 19.119 3.90001 18.238 3.90001C17.945 3.89801 16.768 3.89801 16.475 3.89801L16.476 3.89901ZM1.20601 46.767V4.48701C1.20601 4.48701 1.20601 2.13701 0.0340118 1.25701L16.476 0.963013C17.946 0.963013 19.706 0.963015 20.583 1.25801C24.696 2.13601 27.923 4.48502 29.395 9.18502C30.568 13.001 29.981 17.699 27.338 21.518C26.751 22.398 24.986 24.453 22.931 25.628C22.639 25.92 22.345 25.92 22.051 26.218C24.401 30.033 25.573 32.384 27.337 36.788C28.807 40.603 29.687 45.594 29.979 46.766C30.272 49.411 31.157 49.704 31.451 49.996L21.761 50.292C22.054 49.704 24.696 48.825 24.696 44.418C24.696 41.481 24.11 37.96 22.64 34.141C22.053 32.384 20.88 29.741 19.703 27.683C18.236 28.271 15.593 29.149 13.829 29.443C12.657 29.741 11.187 29.741 9.71901 30.033C8.25201 30.327 7.07501 30.327 6.19601 30.327V46.773C6.19601 47.066 6.19601 49.117 7.66601 49.703L0.0320129 49.995C0.912013 49.115 1.20401 47.357 1.20401 46.765L1.20601 46.767Z" fill="#717171"/>
</svg>
